<svg xmlns="http://www.w3.org/2000/svg" xmlns:xlink="http://www.w3.org/1999/xlink" width="1000" zoomAndPan="magnify" viewBox="0 0 750 749.999995" height="1000" preserveAspectRatio="xMidYMid meet" version="1.0"><defs><clipPath id="2be21f8fdc"><path d="M 145 82.777344 L 457 82.777344 L 457 583 L 145 583 Z M 145 82.777344 " clip-rule="nonzero"/></clipPath><clipPath id="75d8b0efac"><path d="M 79.453125 148 L 493 148 L 493 649 L 79.453125 649 Z M 79.453125 148 " clip-rule="nonzero"/></clipPath><clipPath id="90f2058154"><path d="M 441 82.777344 L 639 82.777344 L 639 273 L 441 273 Z M 441 82.777344 " clip-rule="nonzero"/></clipPath><clipPath id="b2e2840b33"><path d="M 425 422 L 670.453125 422 L 670.453125 667.027344 L 425 667.027344 Z M 425 422 " clip-rule="nonzero"/></clipPath><clipPath id="67f43af0de"><path d="M 145 82.777344 L 457 82.777344 L 457 583 L 145 583 Z M 145 82.777344 " clip-rule="nonzero"/></clipPath><clipPath id="bce18d8bcc"><path d="M 79.453125 148 L 493 148 L 493 649 L 79.453125 649 Z M 79.453125 148 " clip-rule="nonzero"/></clipPath><clipPath id="3da6252770"><path d="M 441 82.777344 L 639 82.777344 L 639 273 L 441 273 Z M 441 82.777344 " clip-rule="nonzero"/></clipPath><clipPath id="c14f12f8e6"><path d="M 425 422 L 670.453125 422 L 670.453125 667.027344 L 425 667.027344 Z M 425 422 " clip-rule="nonzero"/></clipPath></defs><rect x="-75" width="900" fill="#ffffff" y="-74.999999" height="899.999994" fill-opacity="1"/><rect x="-75" width="900" fill="#ffffff" y="-74.999999" height="899.999994" fill-opacity="1"/><path fill="#fdcb50" d="M 384.265625 160.730469 L 384.265625 214.738281 C 384.265625 221.390625 378.8125 226.84375 372.160156 226.84375 L 308.429688 226.84375 L 308.429688 148.625 L 372.027344 148.625 C 378.8125 148.625 384.265625 154.078125 384.265625 160.730469 Z M 384.265625 160.730469 " fill-opacity="1" fill-rule="nonzero"/><path fill="#fdcb50" d="M 308.429688 148.625 L 308.429688 226.84375 L 244.699219 226.84375 C 238.046875 226.84375 232.589844 221.390625 232.589844 214.738281 L 232.589844 160.730469 C 232.589844 154.078125 238.046875 148.625 244.699219 148.625 Z M 308.429688 148.625 " fill-opacity="1" fill-rule="nonzero"/><path fill="#fdcb50" d="M 305.234375 456.582031 L 305.234375 514.3125 C 305.234375 521.496094 299.382812 527.351562 292.195312 527.351562 L 234.453125 527.351562 C 227.269531 527.351562 221.414062 521.496094 221.414062 514.3125 L 221.414062 456.582031 C 221.414062 449.398438 227.269531 443.542969 234.453125 443.542969 L 292.195312 443.542969 C 299.382812 443.675781 305.234375 449.53125 305.234375 456.582031 Z M 305.234375 456.582031 " fill-opacity="1" fill-rule="nonzero"/><path fill="#fdcb50" d="M 305.234375 325.816406 L 305.234375 383.550781 C 305.234375 390.734375 299.382812 396.585938 292.195312 396.585938 L 234.453125 396.585938 C 227.269531 396.585938 221.414062 390.734375 221.414062 383.550781 L 221.414062 325.816406 C 221.414062 318.632812 227.269531 312.78125 234.453125 312.78125 L 292.195312 312.78125 C 299.382812 312.78125 305.234375 318.632812 305.234375 325.816406 Z M 305.234375 325.816406 " fill-opacity="1" fill-rule="nonzero"/><path fill="#db4b86" d="M 631.070312 466.292969 C 650.359375 486.777344 662.335938 514.445312 662.335938 544.777344 C 662.335938 607.964844 610.847656 659.3125 547.78125 659.3125 C 524.632812 659.3125 503.078125 652.394531 484.984375 640.421875 C 462.097656 625.390625 444.800781 602.242188 437.351562 575.238281 C 434.691406 565.527344 433.226562 555.285156 433.226562 544.644531 C 433.226562 481.589844 484.71875 430.109375 547.78125 430.109375 C 580.511719 430.109375 610.179688 444.074219 631.070312 466.292969 Z M 631.070312 466.292969 " fill-opacity="1" fill-rule="nonzero"/><path fill="#0d86af" d="M 631.203125 265.023438 L 515.851562 265.023438 C 478.996094 265.023438 448.925781 234.960938 448.925781 198.109375 L 448.925781 90.492188 Z M 631.203125 265.023438 " fill-opacity="1" fill-rule="nonzero"/><path fill="#0d86af" d="M 484.851562 640.421875 L 154.492188 640.554688 C 117.640625 640.554688 87.570312 610.492188 87.570312 573.644531 L 87.570312 222.722656 C 87.570312 186.40625 116.839844 156.738281 152.894531 155.808594 C 152.894531 156.339844 152.894531 156.875 152.894531 157.40625 L 152.894531 508.328125 C 152.894531 545.175781 182.964844 575.238281 219.820312 575.238281 L 437.21875 575.238281 C 444.800781 602.375 461.964844 625.390625 484.851562 640.421875 Z M 484.851562 640.421875 " fill-opacity="1" fill-rule="nonzero"/><path fill="#d2dcfd" d="M 631.203125 265.023438 L 631.203125 466.292969 C 610.3125 444.074219 580.644531 430.242188 547.78125 430.242188 C 484.71875 430.242188 433.226562 481.722656 433.226562 544.777344 C 433.226562 555.417969 434.691406 565.527344 437.351562 575.371094 L 219.820312 575.371094 C 182.964844 575.371094 152.894531 545.308594 152.894531 508.460938 L 152.894531 157.40625 C 152.894531 156.871094 152.894531 156.339844 152.894531 155.808594 C 153.695312 119.757812 183.496094 90.492188 219.820312 90.492188 L 448.792969 90.492188 L 448.792969 197.976562 C 448.792969 234.828125 478.863281 264.890625 515.71875 264.890625 L 631.203125 264.890625 Z M 384.265625 214.738281 L 384.265625 160.730469 C 384.265625 154.078125 378.8125 148.625 372.160156 148.625 L 244.699219 148.625 C 238.046875 148.625 232.589844 154.078125 232.589844 160.730469 L 232.589844 214.738281 C 232.589844 221.390625 238.046875 226.84375 244.699219 226.84375 L 372.027344 226.84375 C 378.8125 226.84375 384.265625 221.390625 384.265625 214.738281 Z M 305.234375 514.445312 L 305.234375 456.714844 C 305.234375 449.53125 299.382812 443.675781 292.195312 443.675781 L 234.453125 443.675781 C 227.269531 443.675781 221.414062 449.53125 221.414062 456.714844 L 221.414062 514.445312 C 221.414062 521.628906 227.269531 527.484375 234.453125 527.484375 L 292.195312 527.484375 C 299.382812 527.351562 305.234375 521.496094 305.234375 514.445312 Z M 305.234375 383.550781 L 305.234375 325.816406 C 305.234375 318.632812 299.382812 312.78125 292.195312 312.78125 L 234.453125 312.78125 C 227.269531 312.78125 221.414062 318.632812 221.414062 325.816406 L 221.414062 383.550781 C 221.414062 390.734375 227.269531 396.585938 234.453125 396.585938 L 292.195312 396.585938 C 299.382812 396.585938 305.234375 390.734375 305.234375 383.550781 Z M 305.234375 383.550781 " fill-opacity="1" fill-rule="nonzero"/><path fill="#000000" d="M 631.203125 473.875 C 626.945312 473.875 623.484375 470.414062 623.484375 466.160156 L 623.484375 265.023438 C 623.484375 260.765625 626.945312 257.308594 631.203125 257.308594 C 635.460938 257.308594 638.917969 260.765625 638.917969 265.023438 L 638.917969 466.292969 C 638.785156 470.414062 635.460938 473.875 631.203125 473.875 Z M 631.203125 473.875 " fill-opacity="1" fill-rule="nonzero"/><g clip-path="url(#2be21f8fdc)"><path fill="#000000" d="M 437.21875 582.957031 L 219.820312 582.957031 C 178.707031 582.957031 145.179688 549.433594 145.179688 508.328125 L 145.179688 157.40625 C 145.179688 156.738281 145.179688 156.207031 145.179688 155.542969 C 146.242188 115.503906 179.640625 82.777344 219.6875 82.777344 L 448.660156 82.777344 C 452.917969 82.777344 456.378906 86.234375 456.378906 90.492188 C 456.378906 94.75 452.917969 98.207031 448.660156 98.207031 L 219.820312 98.207031 C 187.886719 98.207031 161.277344 124.148438 160.613281 156.074219 C 160.613281 156.207031 160.613281 156.207031 160.613281 156.339844 C 160.613281 156.738281 160.613281 157.140625 160.613281 157.539062 L 160.613281 508.460938 C 160.613281 541.183594 187.222656 567.789062 219.953125 567.789062 L 437.351562 567.789062 C 441.609375 567.789062 445.070312 571.25 445.070312 575.503906 C 445.070312 579.761719 441.476562 582.957031 437.21875 582.957031 Z M 437.21875 582.957031 " fill-opacity="1" fill-rule="nonzero"/></g><g clip-path="url(#75d8b0efac)"><path fill="#000000" d="M 484.851562 648.269531 L 154.492188 648.269531 C 113.382812 648.269531 79.851562 614.75 79.851562 573.644531 L 79.851562 222.722656 C 79.851562 182.546875 112.449219 149.15625 152.628906 148.226562 C 156.886719 148.09375 160.347656 151.417969 160.480469 155.675781 C 160.613281 159.933594 157.285156 163.390625 153.03125 163.523438 C 121.097656 164.324219 95.152344 190.925781 95.152344 222.722656 L 95.152344 573.644531 C 95.152344 606.367188 121.761719 632.972656 154.492188 632.972656 L 484.851562 632.972656 C 489.109375 632.972656 492.566406 636.429688 492.566406 640.6875 C 492.566406 644.945312 489.105469 648.269531 484.851562 648.269531 Z M 484.851562 648.269531 " fill-opacity="1" fill-rule="nonzero"/></g><g clip-path="url(#90f2058154)"><path fill="#000000" d="M 631.203125 272.605469 L 515.851562 272.605469 C 474.738281 272.605469 441.210938 239.082031 441.210938 197.976562 L 441.210938 90.492188 C 441.210938 87.433594 443.074219 84.640625 445.867188 83.441406 C 448.660156 82.246094 451.988281 82.777344 454.117188 84.90625 L 636.390625 259.304688 C 638.652344 261.429688 639.316406 264.757812 638.253906 267.683594 C 637.054688 270.742188 634.261719 272.605469 631.203125 272.605469 Z M 456.511719 108.453125 L 456.511719 197.976562 C 456.511719 230.703125 483.121094 257.308594 515.71875 257.308594 L 612.042969 257.308594 Z M 456.511719 108.453125 " fill-opacity="1" fill-rule="nonzero"/></g><g clip-path="url(#b2e2840b33)"><path fill="#000000" d="M 547.78125 667.027344 C 523.832031 667.027344 500.683594 660.109375 480.726562 646.941406 C 455.84375 630.578125 437.75 605.835938 429.902344 577.367188 C 426.972656 566.859375 425.511719 555.816406 425.511719 544.777344 C 425.511719 477.332031 480.328125 422.527344 547.78125 422.527344 C 581.308594 422.527344 613.640625 436.625 636.789062 461.101562 C 658.210938 483.851562 670.050781 513.648438 670.050781 544.777344 C 670.050781 612.085938 615.101562 667.027344 547.78125 667.027344 Z M 547.78125 437.824219 C 488.839844 437.824219 440.8125 485.847656 440.8125 544.777344 C 440.8125 554.488281 442.140625 564.066406 444.667969 573.246094 C 451.589844 598.253906 467.421875 619.804688 489.105469 634.171875 C 506.535156 645.609375 526.761719 651.730469 547.648438 651.730469 C 606.589844 651.730469 654.617188 603.707031 654.617188 544.777344 C 654.617188 517.507812 644.242188 491.433594 625.480469 471.613281 C 605.390625 450.0625 577.050781 437.824219 547.78125 437.824219 Z M 547.78125 437.824219 " fill-opacity="1" fill-rule="nonzero"/></g><path fill="#000000" d="M 292.195312 404.300781 L 234.453125 404.300781 C 223.011719 404.300781 213.832031 394.988281 213.832031 383.683594 L 213.832031 325.949219 C 213.832031 314.507812 223.144531 305.328125 234.453125 305.328125 L 292.195312 305.328125 C 303.640625 305.328125 312.820312 314.640625 312.820312 325.949219 L 312.820312 383.683594 C 312.820312 394.988281 303.640625 404.300781 292.195312 404.300781 Z M 234.453125 320.496094 C 231.527344 320.496094 229.132812 322.890625 229.132812 325.816406 L 229.132812 383.550781 C 229.132812 386.476562 231.527344 388.871094 234.453125 388.871094 L 292.195312 388.871094 C 295.125 388.871094 297.519531 386.476562 297.519531 383.550781 L 297.519531 325.816406 C 297.519531 322.890625 295.125 320.496094 292.195312 320.496094 Z M 234.453125 320.496094 " fill-opacity="1" fill-rule="nonzero"/><path fill="#000000" d="M 411.539062 362.398438 L 358.585938 362.398438 C 354.332031 362.398438 350.871094 358.9375 350.871094 354.683594 C 350.871094 350.425781 354.332031 346.96875 358.585938 346.96875 L 411.539062 346.96875 C 415.796875 346.96875 419.257812 350.425781 419.257812 354.683594 C 419.257812 358.9375 415.796875 362.398438 411.539062 362.398438 Z M 411.539062 362.398438 " fill-opacity="1" fill-rule="nonzero"/><path fill="#000000" d="M 465.957031 362.398438 L 455.179688 362.398438 C 450.921875 362.398438 447.464844 358.9375 447.464844 354.683594 C 447.464844 350.425781 450.921875 346.96875 455.179688 346.96875 L 465.957031 346.96875 C 470.214844 346.96875 473.675781 350.425781 473.675781 354.683594 C 473.675781 358.9375 470.214844 362.398438 465.957031 362.398438 Z M 465.957031 362.398438 " fill-opacity="1" fill-rule="nonzero"/><path fill="#000000" d="M 562.550781 362.398438 L 509.597656 362.398438 C 505.339844 362.398438 501.878906 358.9375 501.878906 354.683594 C 501.878906 350.425781 505.339844 346.96875 509.597656 346.96875 L 562.550781 346.96875 C 566.808594 346.96875 570.265625 350.425781 570.265625 354.683594 C 570.265625 358.9375 566.808594 362.398438 562.550781 362.398438 Z M 562.550781 362.398438 " fill-opacity="1" fill-rule="nonzero"/><path fill="#000000" d="M 562.550781 329.671875 L 416.199219 329.671875 C 411.941406 329.671875 408.480469 326.214844 408.480469 321.957031 C 408.480469 317.703125 411.941406 314.242188 416.199219 314.242188 L 562.550781 314.242188 C 566.808594 314.242188 570.265625 317.703125 570.265625 321.957031 C 570.265625 326.214844 566.808594 329.671875 562.550781 329.671875 Z M 562.550781 329.671875 " fill-opacity="1" fill-rule="nonzero"/><path fill="#000000" d="M 367.234375 329.671875 L 358.585938 329.671875 C 354.332031 329.671875 350.871094 326.214844 350.871094 321.957031 C 350.871094 317.703125 354.332031 314.242188 358.585938 314.242188 L 367.234375 314.242188 C 371.492188 314.242188 374.953125 317.703125 374.953125 321.957031 C 374.953125 326.214844 371.359375 329.671875 367.234375 329.671875 Z M 367.234375 329.671875 " fill-opacity="1" fill-rule="nonzero"/><path fill="#000000" d="M 504.941406 395.121094 L 358.585938 395.121094 C 354.332031 395.121094 350.871094 391.664062 350.871094 387.40625 C 350.871094 383.148438 354.332031 379.691406 358.585938 379.691406 L 504.941406 379.691406 C 509.199219 379.691406 512.65625 383.148438 512.65625 387.40625 C 512.65625 391.664062 509.199219 395.121094 504.941406 395.121094 Z M 504.941406 395.121094 " fill-opacity="1" fill-rule="nonzero"/><path fill="#000000" d="M 562.550781 395.121094 L 553.902344 395.121094 C 549.644531 395.121094 546.183594 391.664062 546.183594 387.40625 C 546.183594 383.148438 549.644531 379.691406 553.902344 379.691406 L 562.550781 379.691406 C 566.808594 379.691406 570.265625 383.148438 570.265625 387.40625 C 570.265625 391.664062 566.808594 395.121094 562.550781 395.121094 Z M 562.550781 395.121094 " fill-opacity="1" fill-rule="nonzero"/><path fill="#000000" d="M 292.195312 535.066406 L 234.453125 535.066406 C 223.011719 535.066406 213.832031 525.753906 213.832031 514.445312 L 213.832031 456.714844 C 213.832031 445.273438 223.144531 436.09375 234.453125 436.09375 L 292.195312 436.09375 C 303.640625 436.09375 312.820312 445.40625 312.820312 456.714844 L 312.820312 514.445312 C 312.820312 525.753906 303.640625 535.066406 292.195312 535.066406 Z M 234.453125 451.257812 C 231.527344 451.257812 229.132812 453.652344 229.132812 456.582031 L 229.132812 514.3125 C 229.132812 517.242188 231.527344 519.636719 234.453125 519.636719 L 292.195312 519.636719 C 295.125 519.636719 297.519531 517.242188 297.519531 514.3125 L 297.519531 456.582031 C 297.519531 453.652344 295.125 451.257812 292.195312 451.257812 Z M 234.453125 451.257812 " fill-opacity="1" fill-rule="nonzero"/><path fill="#000000" d="M 411.539062 493.164062 L 358.585938 493.164062 C 354.332031 493.164062 350.871094 489.703125 350.871094 485.445312 C 350.871094 481.191406 354.332031 477.730469 358.585938 477.730469 L 411.539062 477.730469 C 415.796875 477.730469 419.257812 481.191406 419.257812 485.445312 C 419.257812 489.703125 415.796875 493.164062 411.539062 493.164062 Z M 411.539062 493.164062 " fill-opacity="1" fill-rule="nonzero"/><path fill="#000000" d="M 479.261719 460.4375 L 416.199219 460.4375 C 411.941406 460.4375 408.480469 456.980469 408.480469 452.722656 C 408.480469 448.464844 411.941406 445.007812 416.199219 445.007812 L 479.128906 445.007812 C 483.386719 445.007812 486.84375 448.464844 486.84375 452.722656 C 486.84375 456.980469 483.519531 460.4375 479.261719 460.4375 Z M 479.261719 460.4375 " fill-opacity="1" fill-rule="nonzero"/><path fill="#000000" d="M 367.234375 460.4375 L 358.585938 460.4375 C 354.332031 460.4375 350.871094 456.980469 350.871094 452.722656 C 350.871094 448.464844 354.332031 445.007812 358.585938 445.007812 L 367.234375 445.007812 C 371.492188 445.007812 374.953125 448.464844 374.953125 452.722656 C 374.953125 456.980469 371.359375 460.4375 367.234375 460.4375 Z M 367.234375 460.4375 " fill-opacity="1" fill-rule="nonzero"/><path fill="#000000" d="M 436.15625 525.886719 L 358.585938 525.886719 C 354.332031 525.886719 350.871094 522.429688 350.871094 518.171875 C 350.871094 513.914062 354.332031 510.457031 358.585938 510.457031 L 436.15625 510.457031 C 440.410156 510.457031 443.871094 513.914062 443.871094 518.171875 C 443.871094 522.429688 440.410156 525.886719 436.15625 525.886719 Z M 436.15625 525.886719 " fill-opacity="1" fill-rule="nonzero"/><path fill="#000000" d="M 249.222656 376.5 C 247.226562 376.5 245.363281 375.699219 243.769531 374.238281 C 240.839844 371.3125 240.839844 366.390625 243.769531 363.460938 L 272.105469 335.128906 C 275.035156 332.203125 279.957031 332.203125 282.882812 335.128906 C 285.8125 338.054688 285.8125 342.976562 282.882812 345.902344 L 254.542969 374.238281 C 253.082031 375.699219 251.21875 376.5 249.222656 376.5 Z M 249.222656 376.5 " fill-opacity="1" fill-rule="nonzero"/><path fill="#000000" d="M 277.429688 376.5 C 275.433594 376.5 273.570312 375.699219 271.972656 374.238281 L 243.632812 345.902344 C 240.707031 342.976562 240.707031 338.054688 243.632812 335.128906 C 246.5625 332.203125 251.484375 332.203125 254.410156 335.128906 L 282.75 363.460938 C 285.679688 366.390625 285.679688 371.3125 282.75 374.238281 C 281.421875 375.699219 279.425781 376.5 277.429688 376.5 Z M 277.429688 376.5 " fill-opacity="1" fill-rule="nonzero"/><path fill="#000000" d="M 249.222656 507.261719 C 247.226562 507.261719 245.363281 506.464844 243.769531 505 C 240.839844 502.074219 240.839844 497.152344 243.769531 494.226562 L 272.105469 465.890625 C 275.035156 462.964844 279.957031 462.964844 282.882812 465.890625 C 285.8125 468.820312 285.8125 473.742188 282.882812 476.667969 L 254.542969 505 C 253.082031 506.597656 251.21875 507.261719 249.222656 507.261719 Z M 249.222656 507.261719 " fill-opacity="1" fill-rule="nonzero"/><path fill="#000000" d="M 277.429688 507.261719 C 275.433594 507.261719 273.570312 506.464844 271.972656 505 L 243.632812 476.667969 C 240.707031 473.742188 240.707031 468.820312 243.632812 465.890625 C 246.5625 462.964844 251.484375 462.964844 254.410156 465.890625 L 282.75 494.226562 C 285.679688 497.152344 285.679688 502.074219 282.75 505 C 281.421875 506.597656 279.425781 507.261719 277.429688 507.261719 Z M 277.429688 507.261719 " fill-opacity="1" fill-rule="nonzero"/><path fill="#000000" d="M 372.160156 234.558594 L 244.832031 234.558594 C 233.921875 234.558594 225.007812 225.648438 225.007812 214.738281 L 225.007812 160.730469 C 225.007812 149.824219 233.921875 140.910156 244.832031 140.910156 L 372.160156 140.910156 C 383.070312 140.910156 391.984375 149.824219 391.984375 160.730469 L 391.984375 214.738281 C 391.984375 225.648438 383.070312 234.558594 372.160156 234.558594 Z M 244.832031 156.207031 C 242.4375 156.207031 240.308594 158.203125 240.308594 160.730469 L 240.308594 214.738281 C 240.308594 217.132812 242.304688 219.261719 244.832031 219.261719 L 372.160156 219.261719 C 374.554688 219.261719 376.683594 217.265625 376.683594 214.738281 L 376.683594 160.730469 C 376.683594 158.203125 374.6875 156.207031 372.160156 156.207031 Z M 244.832031 156.207031 " fill-opacity="1" fill-rule="nonzero"/><path fill="#000000" d="M 503.609375 596.523438 C 501.613281 596.523438 499.75 595.726562 498.15625 594.261719 C 495.226562 591.335938 495.226562 586.414062 498.15625 583.488281 L 586.5 495.15625 C 589.425781 492.230469 594.347656 492.230469 597.273438 495.15625 C 600.203125 498.085938 600.203125 503.007812 597.273438 505.933594 L 508.929688 594.261719 C 507.46875 595.726562 505.472656 596.523438 503.609375 596.523438 Z M 503.609375 596.523438 " fill-opacity="1" fill-rule="nonzero"/><path fill="#000000" d="M 591.953125 596.523438 C 589.957031 596.523438 588.09375 595.726562 586.5 594.261719 L 498.15625 505.933594 C 495.226562 503.007812 495.226562 498.085938 498.15625 495.15625 C 501.082031 492.230469 506.003906 492.097656 508.929688 495.15625 L 597.273438 583.488281 C 600.203125 586.414062 600.203125 591.335938 597.273438 594.261719 C 595.8125 595.726562 593.816406 596.523438 591.953125 596.523438 Z M 591.953125 596.523438 " fill-opacity="1" fill-rule="nonzero"/><path fill="#000000" d="M 544.855469 643.347656 C 540.597656 643.347656 537.136719 639.890625 537.136719 635.632812 C 537.136719 631.375 540.597656 627.917969 544.855469 627.917969 C 592.351562 627.917969 631.070312 589.207031 631.070312 541.71875 C 631.070312 537.460938 634.527344 534 638.785156 534 C 643.042969 534 646.503906 537.460938 646.503906 541.71875 C 646.371094 597.855469 600.867188 643.347656 544.855469 643.347656 Z M 544.855469 643.347656 " fill-opacity="1" fill-rule="nonzero"/><path fill="#000000" d="M 308.429688 234.558594 C 304.171875 234.558594 300.710938 231.101562 300.710938 226.84375 L 300.710938 148.625 C 300.710938 144.367188 304.171875 140.910156 308.429688 140.910156 C 312.6875 140.910156 316.144531 144.367188 316.144531 148.625 L 316.144531 226.84375 C 316.144531 231.101562 312.6875 234.558594 308.429688 234.558594 Z M 308.429688 234.558594 " fill-opacity="1" fill-rule="nonzero"/><path fill="#fdcb50" d="M 384.265625 160.730469 L 384.265625 214.738281 C 384.265625 221.390625 378.8125 226.84375 372.160156 226.84375 L 308.429688 226.84375 L 308.429688 148.625 L 372.027344 148.625 C 378.8125 148.625 384.265625 154.078125 384.265625 160.730469 Z M 384.265625 160.730469 " fill-opacity="1" fill-rule="nonzero"/><path fill="#fdcb50" d="M 308.429688 148.625 L 308.429688 226.84375 L 244.699219 226.84375 C 238.046875 226.84375 232.589844 221.390625 232.589844 214.738281 L 232.589844 160.730469 C 232.589844 154.078125 238.046875 148.625 244.699219 148.625 Z M 308.429688 148.625 " fill-opacity="1" fill-rule="nonzero"/><path fill="#fdcb50" d="M 305.234375 456.582031 L 305.234375 514.3125 C 305.234375 521.496094 299.382812 527.351562 292.195312 527.351562 L 234.453125 527.351562 C 227.269531 527.351562 221.414062 521.496094 221.414062 514.3125 L 221.414062 456.582031 C 221.414062 449.398438 227.269531 443.542969 234.453125 443.542969 L 292.195312 443.542969 C 299.382812 443.675781 305.234375 449.53125 305.234375 456.582031 Z M 305.234375 456.582031 " fill-opacity="1" fill-rule="nonzero"/><path fill="#fdcb50" d="M 305.234375 325.816406 L 305.234375 383.550781 C 305.234375 390.734375 299.382812 396.585938 292.195312 396.585938 L 234.453125 396.585938 C 227.269531 396.585938 221.414062 390.734375 221.414062 383.550781 L 221.414062 325.816406 C 221.414062 318.632812 227.269531 312.78125 234.453125 312.78125 L 292.195312 312.78125 C 299.382812 312.78125 305.234375 318.632812 305.234375 325.816406 Z M 305.234375 325.816406 " fill-opacity="1" fill-rule="nonzero"/><path fill="#db4b86" d="M 631.070312 466.292969 C 650.359375 486.777344 662.335938 514.445312 662.335938 544.777344 C 662.335938 607.964844 610.847656 659.3125 547.78125 659.3125 C 524.632812 659.3125 503.078125 652.394531 484.984375 640.421875 C 462.097656 625.390625 444.800781 602.242188 437.351562 575.238281 C 434.691406 565.527344 433.226562 555.285156 433.226562 544.644531 C 433.226562 481.589844 484.71875 430.109375 547.78125 430.109375 C 580.511719 430.109375 610.179688 444.074219 631.070312 466.292969 Z M 631.070312 466.292969 " fill-opacity="1" fill-rule="nonzero"/><path fill="#0d86af" d="M 631.203125 265.023438 L 515.851562 265.023438 C 478.996094 265.023438 448.925781 234.960938 448.925781 198.109375 L 448.925781 90.492188 Z M 631.203125 265.023438 " fill-opacity="1" fill-rule="nonzero"/><path fill="#0d86af" d="M 484.851562 640.421875 L 154.492188 640.554688 C 117.640625 640.554688 87.570312 610.492188 87.570312 573.644531 L 87.570312 222.722656 C 87.570312 186.40625 116.839844 156.738281 152.894531 155.808594 C 152.894531 156.339844 152.894531 156.875 152.894531 157.40625 L 152.894531 508.328125 C 152.894531 545.175781 182.964844 575.238281 219.820312 575.238281 L 437.21875 575.238281 C 444.800781 602.375 461.964844 625.390625 484.851562 640.421875 Z M 484.851562 640.421875 " fill-opacity="1" fill-rule="nonzero"/><path fill="#d2dcfd" d="M 631.203125 265.023438 L 631.203125 466.292969 C 610.3125 444.074219 580.644531 430.242188 547.78125 430.242188 C 484.71875 430.242188 433.226562 481.722656 433.226562 544.777344 C 433.226562 555.417969 434.691406 565.527344 437.351562 575.371094 L 219.820312 575.371094 C 182.964844 575.371094 152.894531 545.308594 152.894531 508.460938 L 152.894531 157.40625 C 152.894531 156.871094 152.894531 156.339844 152.894531 155.808594 C 153.695312 119.757812 183.496094 90.492188 219.820312 90.492188 L 448.792969 90.492188 L 448.792969 197.976562 C 448.792969 234.828125 478.863281 264.890625 515.71875 264.890625 L 631.203125 264.890625 Z M 384.265625 214.738281 L 384.265625 160.730469 C 384.265625 154.078125 378.8125 148.625 372.160156 148.625 L 244.699219 148.625 C 238.046875 148.625 232.589844 154.078125 232.589844 160.730469 L 232.589844 214.738281 C 232.589844 221.390625 238.046875 226.84375 244.699219 226.84375 L 372.027344 226.84375 C 378.8125 226.84375 384.265625 221.390625 384.265625 214.738281 Z M 305.234375 514.445312 L 305.234375 456.714844 C 305.234375 449.53125 299.382812 443.675781 292.195312 443.675781 L 234.453125 443.675781 C 227.269531 443.675781 221.414062 449.53125 221.414062 456.714844 L 221.414062 514.445312 C 221.414062 521.628906 227.269531 527.484375 234.453125 527.484375 L 292.195312 527.484375 C 299.382812 527.351562 305.234375 521.496094 305.234375 514.445312 Z M 305.234375 383.550781 L 305.234375 325.816406 C 305.234375 318.632812 299.382812 312.78125 292.195312 312.78125 L 234.453125 312.78125 C 227.269531 312.78125 221.414062 318.632812 221.414062 325.816406 L 221.414062 383.550781 C 221.414062 390.734375 227.269531 396.585938 234.453125 396.585938 L 292.195312 396.585938 C 299.382812 396.585938 305.234375 390.734375 305.234375 383.550781 Z M 305.234375 383.550781 " fill-opacity="1" fill-rule="nonzero"/><path fill="#000000" d="M 631.203125 473.875 C 626.945312 473.875 623.484375 470.414062 623.484375 466.160156 L 623.484375 265.023438 C 623.484375 260.765625 626.945312 257.308594 631.203125 257.308594 C 635.460938 257.308594 638.917969 260.765625 638.917969 265.023438 L 638.917969 466.292969 C 638.785156 470.414062 635.460938 473.875 631.203125 473.875 Z M 631.203125 473.875 " fill-opacity="1" fill-rule="nonzero"/><g clip-path="url(#67f43af0de)"><path fill="#000000" d="M 437.21875 582.957031 L 219.820312 582.957031 C 178.707031 582.957031 145.179688 549.433594 145.179688 508.328125 L 145.179688 157.40625 C 145.179688 156.738281 145.179688 156.207031 145.179688 155.542969 C 146.242188 115.503906 179.640625 82.777344 219.6875 82.777344 L 448.660156 82.777344 C 452.917969 82.777344 456.378906 86.234375 456.378906 90.492188 C 456.378906 94.75 452.917969 98.207031 448.660156 98.207031 L 219.820312 98.207031 C 187.886719 98.207031 161.277344 124.148438 160.613281 156.074219 C 160.613281 156.207031 160.613281 156.207031 160.613281 156.339844 C 160.613281 156.738281 160.613281 157.140625 160.613281 157.539062 L 160.613281 508.460938 C 160.613281 541.183594 187.222656 567.789062 219.953125 567.789062 L 437.351562 567.789062 C 441.609375 567.789062 445.070312 571.25 445.070312 575.503906 C 445.070312 579.761719 441.476562 582.957031 437.21875 582.957031 Z M 437.21875 582.957031 " fill-opacity="1" fill-rule="nonzero"/></g><g clip-path="url(#bce18d8bcc)"><path fill="#000000" d="M 484.851562 648.269531 L 154.492188 648.269531 C 113.382812 648.269531 79.851562 614.75 79.851562 573.644531 L 79.851562 222.722656 C 79.851562 182.546875 112.449219 149.15625 152.628906 148.226562 C 156.886719 148.09375 160.347656 151.417969 160.480469 155.675781 C 160.613281 159.933594 157.285156 163.390625 153.03125 163.523438 C 121.097656 164.324219 95.152344 190.925781 95.152344 222.722656 L 95.152344 573.644531 C 95.152344 606.367188 121.761719 632.972656 154.492188 632.972656 L 484.851562 632.972656 C 489.109375 632.972656 492.566406 636.429688 492.566406 640.6875 C 492.566406 644.945312 489.105469 648.269531 484.851562 648.269531 Z M 484.851562 648.269531 " fill-opacity="1" fill-rule="nonzero"/></g><g clip-path="url(#3da6252770)"><path fill="#000000" d="M 631.203125 272.605469 L 515.851562 272.605469 C 474.738281 272.605469 441.210938 239.082031 441.210938 197.976562 L 441.210938 90.492188 C 441.210938 87.433594 443.074219 84.640625 445.867188 83.441406 C 448.660156 82.246094 451.988281 82.777344 454.117188 84.90625 L 636.390625 259.304688 C 638.652344 261.429688 639.316406 264.757812 638.253906 267.683594 C 637.054688 270.742188 634.261719 272.605469 631.203125 272.605469 Z M 456.511719 108.453125 L 456.511719 197.976562 C 456.511719 230.703125 483.121094 257.308594 515.71875 257.308594 L 612.042969 257.308594 Z M 456.511719 108.453125 " fill-opacity="1" fill-rule="nonzero"/></g><g clip-path="url(#c14f12f8e6)"><path fill="#000000" d="M 547.78125 667.027344 C 523.832031 667.027344 500.683594 660.109375 480.726562 646.941406 C 455.84375 630.578125 437.75 605.835938 429.902344 577.367188 C 426.972656 566.859375 425.511719 555.816406 425.511719 544.777344 C 425.511719 477.332031 480.328125 422.527344 547.78125 422.527344 C 581.308594 422.527344 613.640625 436.625 636.789062 461.101562 C 658.210938 483.851562 670.050781 513.648438 670.050781 544.777344 C 670.050781 612.085938 615.101562 667.027344 547.78125 667.027344 Z M 547.78125 437.824219 C 488.839844 437.824219 440.8125 485.847656 440.8125 544.777344 C 440.8125 554.488281 442.140625 564.066406 444.667969 573.246094 C 451.589844 598.253906 467.421875 619.804688 489.105469 634.171875 C 506.535156 645.609375 526.761719 651.730469 547.648438 651.730469 C 606.589844 651.730469 654.617188 603.707031 654.617188 544.777344 C 654.617188 517.507812 644.242188 491.433594 625.480469 471.613281 C 605.390625 450.0625 577.050781 437.824219 547.78125 437.824219 Z M 547.78125 437.824219 " fill-opacity="1" fill-rule="nonzero"/></g><path fill="#000000" d="M 292.195312 404.300781 L 234.453125 404.300781 C 223.011719 404.300781 213.832031 394.988281 213.832031 383.683594 L 213.832031 325.949219 C 213.832031 314.507812 223.144531 305.328125 234.453125 305.328125 L 292.195312 305.328125 C 303.640625 305.328125 312.820312 314.640625 312.820312 325.949219 L 312.820312 383.683594 C 312.820312 394.988281 303.640625 404.300781 292.195312 404.300781 Z M 234.453125 320.496094 C 231.527344 320.496094 229.132812 322.890625 229.132812 325.816406 L 229.132812 383.550781 C 229.132812 386.476562 231.527344 388.871094 234.453125 388.871094 L 292.195312 388.871094 C 295.125 388.871094 297.519531 386.476562 297.519531 383.550781 L 297.519531 325.816406 C 297.519531 322.890625 295.125 320.496094 292.195312 320.496094 Z M 234.453125 320.496094 " fill-opacity="1" fill-rule="nonzero"/><path fill="#000000" d="M 411.539062 362.398438 L 358.585938 362.398438 C 354.332031 362.398438 350.871094 358.9375 350.871094 354.683594 C 350.871094 350.425781 354.332031 346.96875 358.585938 346.96875 L 411.539062 346.96875 C 415.796875 346.96875 419.257812 350.425781 419.257812 354.683594 C 419.257812 358.9375 415.796875 362.398438 411.539062 362.398438 Z M 411.539062 362.398438 " fill-opacity="1" fill-rule="nonzero"/><path fill="#000000" d="M 465.957031 362.398438 L 455.179688 362.398438 C 450.921875 362.398438 447.464844 358.9375 447.464844 354.683594 C 447.464844 350.425781 450.921875 346.96875 455.179688 346.96875 L 465.957031 346.96875 C 470.214844 346.96875 473.675781 350.425781 473.675781 354.683594 C 473.675781 358.9375 470.214844 362.398438 465.957031 362.398438 Z M 465.957031 362.398438 " fill-opacity="1" fill-rule="nonzero"/><path fill="#000000" d="M 562.550781 362.398438 L 509.597656 362.398438 C 505.339844 362.398438 501.878906 358.9375 501.878906 354.683594 C 501.878906 350.425781 505.339844 346.96875 509.597656 346.96875 L 562.550781 346.96875 C 566.808594 346.96875 570.265625 350.425781 570.265625 354.683594 C 570.265625 358.9375 566.808594 362.398438 562.550781 362.398438 Z M 562.550781 362.398438 " fill-opacity="1" fill-rule="nonzero"/><path fill="#000000" d="M 562.550781 329.671875 L 416.199219 329.671875 C 411.941406 329.671875 408.480469 326.214844 408.480469 321.957031 C 408.480469 317.703125 411.941406 314.242188 416.199219 314.242188 L 562.550781 314.242188 C 566.808594 314.242188 570.265625 317.703125 570.265625 321.957031 C 570.265625 326.214844 566.808594 329.671875 562.550781 329.671875 Z M 562.550781 329.671875 " fill-opacity="1" fill-rule="nonzero"/><path fill="#000000" d="M 367.234375 329.671875 L 358.585938 329.671875 C 354.332031 329.671875 350.871094 326.214844 350.871094 321.957031 C 350.871094 317.703125 354.332031 314.242188 358.585938 314.242188 L 367.234375 314.242188 C 371.492188 314.242188 374.953125 317.703125 374.953125 321.957031 C 374.953125 326.214844 371.359375 329.671875 367.234375 329.671875 Z M 367.234375 329.671875 " fill-opacity="1" fill-rule="nonzero"/><path fill="#000000" d="M 504.941406 395.121094 L 358.585938 395.121094 C 354.332031 395.121094 350.871094 391.664062 350.871094 387.40625 C 350.871094 383.148438 354.332031 379.691406 358.585938 379.691406 L 504.941406 379.691406 C 509.199219 379.691406 512.65625 383.148438 512.65625 387.40625 C 512.65625 391.664062 509.199219 395.121094 504.941406 395.121094 Z M 504.941406 395.121094 " fill-opacity="1" fill-rule="nonzero"/><path fill="#000000" d="M 562.550781 395.121094 L 553.902344 395.121094 C 549.644531 395.121094 546.183594 391.664062 546.183594 387.40625 C 546.183594 383.148438 549.644531 379.691406 553.902344 379.691406 L 562.550781 379.691406 C 566.808594 379.691406 570.265625 383.148438 570.265625 387.40625 C 570.265625 391.664062 566.808594 395.121094 562.550781 395.121094 Z M 562.550781 395.121094 " fill-opacity="1" fill-rule="nonzero"/><path fill="#000000" d="M 292.195312 535.066406 L 234.453125 535.066406 C 223.011719 535.066406 213.832031 525.753906 213.832031 514.445312 L 213.832031 456.714844 C 213.832031 445.273438 223.144531 436.09375 234.453125 436.09375 L 292.195312 436.09375 C 303.640625 436.09375 312.820312 445.40625 312.820312 456.714844 L 312.820312 514.445312 C 312.820312 525.753906 303.640625 535.066406 292.195312 535.066406 Z M 234.453125 451.257812 C 231.527344 451.257812 229.132812 453.652344 229.132812 456.582031 L 229.132812 514.3125 C 229.132812 517.242188 231.527344 519.636719 234.453125 519.636719 L 292.195312 519.636719 C 295.125 519.636719 297.519531 517.242188 297.519531 514.3125 L 297.519531 456.582031 C 297.519531 453.652344 295.125 451.257812 292.195312 451.257812 Z M 234.453125 451.257812 " fill-opacity="1" fill-rule="nonzero"/><path fill="#000000" d="M 411.539062 493.164062 L 358.585938 493.164062 C 354.332031 493.164062 350.871094 489.703125 350.871094 485.445312 C 350.871094 481.191406 354.332031 477.730469 358.585938 477.730469 L 411.539062 477.730469 C 415.796875 477.730469 419.257812 481.191406 419.257812 485.445312 C 419.257812 489.703125 415.796875 493.164062 411.539062 493.164062 Z M 411.539062 493.164062 " fill-opacity="1" fill-rule="nonzero"/><path fill="#000000" d="M 479.261719 460.4375 L 416.199219 460.4375 C 411.941406 460.4375 408.480469 456.980469 408.480469 452.722656 C 408.480469 448.464844 411.941406 445.007812 416.199219 445.007812 L 479.128906 445.007812 C 483.386719 445.007812 486.84375 448.464844 486.84375 452.722656 C 486.84375 456.980469 483.519531 460.4375 479.261719 460.4375 Z M 479.261719 460.4375 " fill-opacity="1" fill-rule="nonzero"/><path fill="#000000" d="M 367.234375 460.4375 L 358.585938 460.4375 C 354.332031 460.4375 350.871094 456.980469 350.871094 452.722656 C 350.871094 448.464844 354.332031 445.007812 358.585938 445.007812 L 367.234375 445.007812 C 371.492188 445.007812 374.953125 448.464844 374.953125 452.722656 C 374.953125 456.980469 371.359375 460.4375 367.234375 460.4375 Z M 367.234375 460.4375 " fill-opacity="1" fill-rule="nonzero"/><path fill="#000000" d="M 436.15625 525.886719 L 358.585938 525.886719 C 354.332031 525.886719 350.871094 522.429688 350.871094 518.171875 C 350.871094 513.914062 354.332031 510.457031 358.585938 510.457031 L 436.15625 510.457031 C 440.410156 510.457031 443.871094 513.914062 443.871094 518.171875 C 443.871094 522.429688 440.410156 525.886719 436.15625 525.886719 Z M 436.15625 525.886719 " fill-opacity="1" fill-rule="nonzero"/><path fill="#000000" d="M 249.222656 376.5 C 247.226562 376.5 245.363281 375.699219 243.769531 374.238281 C 240.839844 371.3125 240.839844 366.390625 243.769531 363.460938 L 272.105469 335.128906 C 275.035156 332.203125 279.957031 332.203125 282.882812 335.128906 C 285.8125 338.054688 285.8125 342.976562 282.882812 345.902344 L 254.542969 374.238281 C 253.082031 375.699219 251.21875 376.5 249.222656 376.5 Z M 249.222656 376.5 " fill-opacity="1" fill-rule="nonzero"/><path fill="#000000" d="M 277.429688 376.5 C 275.433594 376.5 273.570312 375.699219 271.972656 374.238281 L 243.632812 345.902344 C 240.707031 342.976562 240.707031 338.054688 243.632812 335.128906 C 246.5625 332.203125 251.484375 332.203125 254.410156 335.128906 L 282.75 363.460938 C 285.679688 366.390625 285.679688 371.3125 282.75 374.238281 C 281.421875 375.699219 279.425781 376.5 277.429688 376.5 Z M 277.429688 376.5 " fill-opacity="1" fill-rule="nonzero"/><path fill="#000000" d="M 249.222656 507.261719 C 247.226562 507.261719 245.363281 506.464844 243.769531 505 C 240.839844 502.074219 240.839844 497.152344 243.769531 494.226562 L 272.105469 465.890625 C 275.035156 462.964844 279.957031 462.964844 282.882812 465.890625 C 285.8125 468.820312 285.8125 473.742188 282.882812 476.667969 L 254.542969 505 C 253.082031 506.597656 251.21875 507.261719 249.222656 507.261719 Z M 249.222656 507.261719 " fill-opacity="1" fill-rule="nonzero"/><path fill="#000000" d="M 277.429688 507.261719 C 275.433594 507.261719 273.570312 506.464844 271.972656 505 L 243.632812 476.667969 C 240.707031 473.742188 240.707031 468.820312 243.632812 465.890625 C 246.5625 462.964844 251.484375 462.964844 254.410156 465.890625 L 282.75 494.226562 C 285.679688 497.152344 285.679688 502.074219 282.75 505 C 281.421875 506.597656 279.425781 507.261719 277.429688 507.261719 Z M 277.429688 507.261719 " fill-opacity="1" fill-rule="nonzero"/><path fill="#000000" d="M 372.160156 234.558594 L 244.832031 234.558594 C 233.921875 234.558594 225.007812 225.648438 225.007812 214.738281 L 225.007812 160.730469 C 225.007812 149.824219 233.921875 140.910156 244.832031 140.910156 L 372.160156 140.910156 C 383.070312 140.910156 391.984375 149.824219 391.984375 160.730469 L 391.984375 214.738281 C 391.984375 225.648438 383.070312 234.558594 372.160156 234.558594 Z M 244.832031 156.207031 C 242.4375 156.207031 240.308594 158.203125 240.308594 160.730469 L 240.308594 214.738281 C 240.308594 217.132812 242.304688 219.261719 244.832031 219.261719 L 372.160156 219.261719 C 374.554688 219.261719 376.683594 217.265625 376.683594 214.738281 L 376.683594 160.730469 C 376.683594 158.203125 374.6875 156.207031 372.160156 156.207031 Z M 244.832031 156.207031 " fill-opacity="1" fill-rule="nonzero"/><path fill="#000000" d="M 503.609375 596.523438 C 501.613281 596.523438 499.75 595.726562 498.15625 594.261719 C 495.226562 591.335938 495.226562 586.414062 498.15625 583.488281 L 586.5 495.15625 C 589.425781 492.230469 594.347656 492.230469 597.273438 495.15625 C 600.203125 498.085938 600.203125 503.007812 597.273438 505.933594 L 508.929688 594.261719 C 507.46875 595.726562 505.472656 596.523438 503.609375 596.523438 Z M 503.609375 596.523438 " fill-opacity="1" fill-rule="nonzero"/><path fill="#000000" d="M 591.953125 596.523438 C 589.957031 596.523438 588.09375 595.726562 586.5 594.261719 L 498.15625 505.933594 C 495.226562 503.007812 495.226562 498.085938 498.15625 495.15625 C 501.082031 492.230469 506.003906 492.097656 508.929688 495.15625 L 597.273438 583.488281 C 600.203125 586.414062 600.203125 591.335938 597.273438 594.261719 C 595.8125 595.726562 593.816406 596.523438 591.953125 596.523438 Z M 591.953125 596.523438 " fill-opacity="1" fill-rule="nonzero"/><path fill="#000000" d="M 544.855469 643.347656 C 540.597656 643.347656 537.136719 639.890625 537.136719 635.632812 C 537.136719 631.375 540.597656 627.917969 544.855469 627.917969 C 592.351562 627.917969 631.070312 589.207031 631.070312 541.71875 C 631.070312 537.460938 634.527344 534 638.785156 534 C 643.042969 534 646.503906 537.460938 646.503906 541.71875 C 646.371094 597.855469 600.867188 643.347656 544.855469 643.347656 Z M 544.855469 643.347656 " fill-opacity="1" fill-rule="nonzero"/><path fill="#000000" d="M 308.429688 234.558594 C 304.171875 234.558594 300.710938 231.101562 300.710938 226.84375 L 300.710938 148.625 C 300.710938 144.367188 304.171875 140.910156 308.429688 140.910156 C 312.6875 140.910156 316.144531 144.367188 316.144531 148.625 L 316.144531 226.84375 C 316.144531 231.101562 312.6875 234.558594 308.429688 234.558594 Z M 308.429688 234.558594 " fill-opacity="1" fill-rule="nonzero"/></svg>